<?xml version="1.0" standalone="no"?><!DOCTYPE svg PUBLIC "-//W3C//DTD SVG 1.1//EN" "http://www.w3.org/Graphics/SVG/1.1/DTD/svg11.dtd"><svg t="1635345234982" class="icon" viewBox="0 0 1024 1024" version="1.1" xmlns="http://www.w3.org/2000/svg" p-id="7074" data-spm-anchor-id="a313x.7781069.0.i3" xmlns:xlink="http://www.w3.org/1999/xlink" width="200" height="200"><defs><style type="text/css"></style></defs><path d="M512 1024a448 448 0 0 1-103.36-883.84l14.72 62.08a384 384 0 1 0 177.28 0l14.72-62.08A448 448 0 0 1 512 1024z" fill="#1c1c1c" p-id="7075"></path><path d="M480 0h64v192h-64z" fill="#1c1c1c" p-id="7076"></path><path d="M416 0h192v64h-192zM300.8 786.56l85.12-252.48 60.8 20.16-44.16 130.88 131.2-43.84 20.16 60.8-253.12 84.48zM638.08 617.92l-60.48-20.16 43.84-130.88-131.2 43.84-20.16-60.8 253.12-84.48-85.12 252.48z" fill="#e79686" p-id="7077" data-spm-anchor-id="a313x.7781069.0.i0" class=""></path></svg>